<svg version="1.1" id="Layer_1" xmlns="http://www.w3.org/2000/svg" xmlns:xlink="http://www.w3.org/1999/xlink" x="0px" y="0px"
	 width="100%" viewBox="0 0 808 309" enable-background="new 0 0 808 309" xml:space="preserve">
<path fill="#000000" opacity="1.000000" stroke="none" 
	d="
M509.000000,310.000000 
	C339.371185,310.000000 170.242371,310.000000 1.056778,310.000000 
	C1.056778,207.060928 1.056778,104.121811 1.056778,1.091348 
	C270.212158,1.091348 539.424316,1.091348 808.818237,1.091348 
	C808.818237,103.999748 808.818237,206.999847 808.818237,310.000000 
	C709.121826,310.000000 609.310913,310.000000 509.000000,310.000000 
M465.990875,143.918823 
	C466.045532,157.615036 466.100220,171.311234 466.009552,185.749695 
	C466.061920,186.500549 466.114319,187.251389 466.014618,188.792618 
	C466.065338,189.860947 466.116089,190.929291 466.010101,192.844803 
	C466.061554,194.563934 466.113007,196.283081 466.008484,198.757385 
	C465.013672,201.999298 462.468109,202.415771 459.715515,201.918701 
	C456.236328,201.290405 457.010468,198.406631 457.007507,196.054245 
	C456.989563,181.729324 456.732300,167.397476 457.103088,153.082123 
	C457.311066,145.051178 451.437164,135.736832 440.113525,135.927383 
	C431.838959,136.066605 423.782013,136.285782 417.501465,143.913086 
	C417.216003,142.334229 416.983093,141.735626 417.021973,141.155243 
	C417.450409,134.761368 416.905945,133.980087 410.576782,134.044998 
	C403.410156,134.118500 396.246948,134.527557 389.082275,134.790710 
	C388.914551,135.247437 388.746826,135.704147 388.579071,136.160873 
	C389.358276,136.904007 390.023346,137.857697 390.936981,138.352768 
	C394.362579,140.208954 395.175140,142.907593 395.111481,146.771942 
	C394.848053,162.758194 394.869415,178.753296 395.100586,194.740601 
	C395.157532,198.678940 394.248505,201.328613 390.537079,202.961761 
	C389.516754,203.410721 388.883453,204.739075 387.935394,205.820312 
	C394.620178,208.223373 421.765594,207.272736 423.753662,205.033188 
	C421.813934,202.555969 418.332703,200.168869 418.253204,197.673340 
	C417.749359,181.865356 417.921478,166.032761 418.048370,150.209702 
	C418.083588,145.818695 421.948730,144.595108 425.157959,144.228088 
	C427.576630,143.951508 431.891815,144.988724 432.426758,146.488434 
	C433.808563,150.362335 433.939514,154.820007 433.898438,159.037979 
	C433.775879,171.611435 432.998993,184.188461 433.252441,196.748459 
	C433.313416,199.769226 432.975403,200.883820 430.523895,202.197800 
	C429.213379,202.900208 428.553345,204.816162 427.219116,206.730591 
	C450.366974,206.730591 472.094147,206.730591 493.821350,206.730591 
	C494.100372,206.379532 494.379425,206.028473 494.658447,205.677414 
	C492.644714,203.619370 490.630981,201.561325 488.688477,199.576096 
	C488.786743,197.961395 488.983673,196.202301 488.986725,194.442886 
	C489.011780,179.951416 488.961853,165.459732 489.024750,150.968491 
	C489.043396,146.668503 491.895142,144.110001 497.050507,144.072235 
	C500.491394,144.047012 503.878143,144.639252 504.047424,149.398819 
	C504.144928,152.139633 504.930176,154.862885 504.955200,157.598175 
	C505.061920,169.257034 505.000610,180.917450 505.000397,192.577286 
	C505.000244,201.311539 504.962952,201.363815 495.516205,204.238586 
	C497.990173,205.504089 499.439270,206.872452 500.911804,206.898178 
	C511.538544,207.083817 522.169983,206.997696 532.799927,206.997696 
	C533.119873,206.581223 533.439758,206.164734 533.759644,205.748260 
	C531.779541,203.623291 529.799438,201.498306 527.566528,199.102005 
	C527.555115,199.133331 527.946106,198.558487 527.947693,197.982559 
	C527.989258,182.991699 528.666931,167.960220 527.772461,153.023315 
	C527.122437,142.168121 523.055298,136.027481 509.316833,135.959671 
	C502.009705,135.923615 495.148376,137.014236 489.258698,142.173859 
	C489.022003,135.295395 487.980225,134.844116 480.935516,134.153992 
	C473.821075,133.457031 466.585175,134.000412 459.402466,134.000412 
	C459.200104,134.703720 458.997711,135.407043 458.795349,136.110352 
	C461.158844,137.754532 463.522339,139.398727 465.990295,141.692520 
	C466.043762,142.125916 466.097229,142.559296 465.990875,143.918823 
M686.257690,138.232513 
	C688.411133,138.153305 690.584656,138.218048 692.707886,137.922073 
	C693.524475,137.808243 694.226562,136.873032 694.980774,136.312073 
	C694.271667,135.876068 693.586365,135.118866 692.848938,135.064148 
	C690.612488,134.898178 688.355896,135.004074 686.000000,135.004074 
	C686.000000,130.690048 686.330994,126.999290 685.876953,123.407761 
	C685.600708,121.222481 684.155396,117.395462 683.163513,117.372269 
	C674.962219,117.180527 666.743042,117.681183 658.533997,118.071396 
	C658.005127,118.096535 657.143311,118.920929 657.111755,119.416580 
	C657.079956,119.914993 657.806946,120.804970 658.348572,120.942108 
	C662.445984,121.979523 663.553162,124.663841 663.045349,128.567856 
	C662.794189,130.499146 663.001770,132.490112 663.001770,133.244904 
	C660.810547,134.251099 659.276917,134.955292 657.743347,135.659485 
	C657.818054,136.085800 657.892761,136.512115 657.967529,136.938446 
	C659.569153,137.448608 661.170837,137.958771 663.001648,138.541931 
	C663.001648,156.412872 663.076660,174.368088 662.969543,192.322220 
	C662.917236,201.085022 669.181152,206.539124 677.416321,207.038834 
	C686.486633,207.589233 691.313843,200.324677 697.859314,196.245300 
	C698.299072,195.971222 697.916687,194.378006 697.916687,192.903671 
	C693.759338,195.254395 689.943359,197.412094 685.832947,199.736298 
	C685.832947,183.938278 685.832947,168.471222 685.987183,152.085342 
	C685.936218,147.722214 685.885193,143.359100 686.257690,138.232513 
M186.997665,181.210800 
	C186.664612,175.556671 186.092087,169.904556 186.044342,164.248032 
	C185.912125,148.583710 186.128418,132.916153 185.961182,117.252510 
	C185.803741,102.506424 186.058884,87.701927 184.810883,73.035591 
	C183.353180,55.904621 173.070602,44.796288 157.170013,39.064041 
	C147.339111,35.519951 136.911758,38.086578 126.786072,37.161423 
	C122.433342,36.763725 117.964668,37.775417 113.540901,37.969791 
	C110.085403,38.121616 106.617912,38.000198 101.997154,38.000198 
	C103.210228,39.545792 103.637726,40.486450 104.368095,40.959316 
	C111.108101,45.323090 115.034676,51.173740 115.026031,59.487263 
	C114.976326,107.315552 114.951904,155.144012 115.045189,202.972168 
	C115.061928,211.556717 115.656189,220.140610 116.022202,228.723175 
	C116.055748,229.509811 116.321281,230.299820 116.561150,231.062454 
	C121.215080,245.859528 131.900238,255.590302 144.758255,262.852905 
	C162.876358,273.086517 182.764130,278.229675 203.461685,278.772125 
	C215.135361,279.078033 227.142731,278.318726 238.500534,275.793640 
	C250.316635,273.166687 261.715942,268.199860 271.299500,260.183289 
	C274.420258,257.572784 277.429108,254.828522 280.674591,251.982864 
	C279.579742,251.233002 279.420898,251.041855 279.318756,251.068436 
	C278.861359,251.187485 278.310760,251.249283 277.988861,251.544464 
	C267.787201,260.899567 254.973343,263.578308 241.932083,264.865967 
	C229.308472,266.112396 216.972336,263.921356 204.960983,259.581543 
	C193.441803,255.419571 186.683716,243.244232 186.921494,232.508682 
	C187.238754,218.183884 187.001266,203.846741 186.998596,189.514908 
	C186.998138,187.040558 186.980652,184.566223 186.997665,181.210800 
M328.048157,140.453033 
	C327.779205,131.578506 322.777435,125.329216 315.757782,121.112823 
	C306.384796,115.482841 296.178314,113.827583 285.046112,115.845795 
	C267.225464,119.076599 250.844543,134.974503 248.997299,154.406616 
	C248.769775,156.800049 247.993134,159.245956 248.289871,161.562683 
	C248.901855,166.340439 249.930328,171.079300 251.030411,175.777283 
	C254.056992,188.702347 262.221802,197.507904 273.977173,202.953568 
	C284.850128,207.990463 296.190338,208.204391 307.702301,205.005539 
	C319.016357,201.861633 328.277039,191.441986 328.922302,179.805771 
	C328.976379,178.830002 328.153229,177.105331 327.405151,176.891464 
	C317.839844,174.156738 308.213867,171.634354 297.732300,168.824600 
	C299.169342,172.858170 299.905518,175.512817 301.039978,177.984634 
	C303.304321,182.918259 303.983582,188.074585 302.919220,193.286224 
	C301.974823,197.910248 299.481598,201.635605 294.455566,202.830841 
	C290.052917,203.877808 286.366150,202.148727 284.269501,198.571457 
	C281.458008,193.774521 278.016083,188.652740 277.439545,183.386368 
	C276.279053,172.786026 273.739380,162.244629 275.790253,151.270172 
	C277.420197,142.548279 277.993042,133.713074 282.613129,125.803894 
	C285.488281,120.881821 289.573547,118.172791 293.441986,119.153572 
	C298.867950,120.529251 303.344452,125.508141 302.904816,130.773560 
	C302.314148,137.848007 301.012756,144.863113 299.952789,152.353668 
	C304.992706,151.577057 310.176453,151.059647 315.214569,149.906281 
	C318.766083,149.093216 322.031036,146.993164 325.587433,146.246582 
	C329.035553,145.522766 329.564789,143.933914 328.048157,140.453033 
M356.734131,205.999863 
	C360.394257,205.999329 364.068756,206.207886 367.711792,205.958115 
	C377.680817,205.274597 386.452881,199.179626 389.982269,189.229507 
	C393.900818,178.182236 393.755402,167.091476 390.478790,155.838898 
	C388.291656,148.327911 383.993500,143.176636 377.110809,139.370438 
	C370.621155,135.781601 363.932068,137.643600 357.343018,136.987534 
	C346.543701,135.912308 336.027191,144.809204 332.779358,154.857315 
	C330.077393,163.216522 331.122864,171.489838 331.125763,179.772995 
	C331.130157,192.288696 340.647095,205.128967 356.734131,205.999863 
M561.520508,186.949341 
	C560.493652,184.605865 559.228333,182.328705 558.549744,179.888367 
	C558.250916,178.813995 558.764404,176.673874 559.555664,176.263214 
	C570.052368,170.815094 580.566406,165.376312 591.303894,160.429718 
	C594.753418,158.840591 595.109680,156.896606 594.408020,153.847427 
	C591.416504,140.846817 575.448730,132.008789 561.589050,133.932709 
	C541.792297,136.680817 534.936951,149.749710 532.378784,163.008774 
	C530.890808,170.720612 531.574219,179.190231 534.961670,187.011871 
	C541.455994,202.007385 560.541931,213.174240 576.842102,203.064636 
	C584.701660,198.190079 589.440796,191.500275 590.965332,182.233566 
	C582.086853,188.898621 573.558838,196.295959 561.520508,186.949341 
M629.313843,134.002045 
	C613.273926,132.332275 598.138733,144.570831 595.189392,159.126419 
	C593.268433,168.606567 593.178101,178.203506 596.578491,186.553238 
	C602.280090,200.553253 616.356689,210.213379 633.035461,205.940521 
	C642.081726,203.623047 651.801331,192.214462 652.806580,182.426605 
	C651.093689,183.443359 649.830933,184.153702 648.607849,184.926910 
	C645.886719,186.647156 643.337585,188.724640 640.446655,190.074554 
	C632.830933,193.630676 623.870056,189.677780 620.980347,181.983643 
	C618.673218,175.840652 618.352478,169.614075 618.947876,163.156509 
	C619.703430,154.962997 621.987976,147.296539 627.195496,140.963654 
	C628.650024,139.194809 632.998352,137.750626 634.572876,138.660446 
	C636.499268,139.773636 638.040649,143.667984 637.724182,146.095901 
	C637.114685,150.771744 635.046570,155.251373 633.662659,159.836349 
	C633.281494,161.099319 633.181396,162.447174 632.750488,164.909180 
	C639.858826,163.102036 645.847656,161.200073 651.982117,160.144196 
	C656.598389,159.349655 656.502014,156.657013 655.750122,153.452820 
	C653.018860,141.814621 642.282471,135.732056 629.313843,134.002045 
M306.515106,49.990410 
	C311.015503,43.679367 317.944366,41.244755 324.809998,38.393902 
	C311.682465,39.352024 297.812653,34.321503 285.836334,43.786129 
	C289.634735,49.179249 294.148590,53.883770 293.607758,61.155457 
	C281.918091,42.076900 265.415924,34.178307 243.169220,38.742889 
	C245.296387,39.818104 247.346634,40.900909 249.435791,41.902576 
	C259.581543,46.767048 266.979645,54.423264 272.685760,64.025917 
	C273.926910,66.114594 276.454681,68.532547 278.614288,68.771576 
	C284.516388,69.424858 290.538239,68.996460 295.743256,68.996460 
	C299.343353,62.503857 302.664246,56.514797 306.515106,49.990410 
z"/>
<path fill="#FFFFFF" opacity="1.000000" stroke="none" 
	d="
M186.984344,181.651337 
	C186.980652,184.566223 186.998138,187.040558 186.998596,189.514908 
	C187.001266,203.846741 187.238754,218.183884 186.921494,232.508682 
	C186.683716,243.244232 193.441803,255.419571 204.960983,259.581543 
	C216.972336,263.921356 229.308472,266.112396 241.932083,264.865967 
	C254.973343,263.578308 267.787201,260.899567 277.988861,251.544464 
	C278.310760,251.249283 278.861359,251.187485 279.318756,251.068436 
	C279.420898,251.041855 279.579742,251.233002 280.674591,251.982864 
	C277.429108,254.828522 274.420258,257.572784 271.299500,260.183289 
	C261.715942,268.199860 250.316635,273.166687 238.500534,275.793640 
	C227.142731,278.318726 215.135361,279.078033 203.461685,278.772125 
	C182.764130,278.229675 162.876358,273.086517 144.758255,262.852905 
	C131.900238,255.590302 121.215080,245.859528 116.561150,231.062454 
	C116.321281,230.299820 116.055748,229.509811 116.022202,228.723175 
	C115.656189,220.140610 115.061928,211.556717 115.045189,202.972168 
	C114.951904,155.144012 114.976326,107.315552 115.026031,59.487263 
	C115.034676,51.173740 111.108101,45.323090 104.368095,40.959316 
	C103.637726,40.486450 103.210228,39.545792 101.997154,38.000198 
	C106.617912,38.000198 110.085403,38.121616 113.540901,37.969791 
	C117.964668,37.775417 122.433342,36.763725 126.786072,37.161423 
	C136.911758,38.086578 147.339111,35.519951 157.170013,39.064041 
	C173.070602,44.796288 183.353180,55.904621 184.810883,73.035591 
	C186.058884,87.701927 185.803741,102.506424 185.961182,117.252510 
	C186.128418,132.916153 185.912125,148.583710 186.044342,164.248032 
	C186.092087,169.904556 186.664612,175.556671 186.984344,181.651337 
z"/>
<path fill="#FEFEFE" opacity="1.000000" stroke="none" 
	d="
M466.166840,191.997620 
	C466.116089,190.929291 466.065338,189.860947 466.421417,188.333008 
	C467.216766,186.912231 467.605347,185.951065 467.995239,184.521881 
	C467.996399,170.371689 467.996246,156.689499 467.951233,142.677521 
	C467.232849,141.912766 466.559357,141.477844 465.885864,141.042908 
	C463.522339,139.398727 461.158844,137.754532 458.795349,136.110352 
	C458.997711,135.407043 459.200104,134.703720 459.402466,134.000412 
	C466.585175,134.000412 473.821075,133.457031 480.935516,134.153992 
	C487.980225,134.844116 489.022003,135.295395 489.258698,142.173859 
	C495.148376,137.014236 502.009705,135.923615 509.316833,135.959671 
	C523.055298,136.027481 527.122437,142.168121 527.772461,153.023315 
	C528.666931,167.960220 527.989258,182.991699 527.947693,197.982559 
	C527.946106,198.558487 527.555115,199.133331 527.566528,199.102005 
	C529.799438,201.498306 531.779541,203.623291 533.759644,205.748260 
	C533.439758,206.164734 533.119873,206.581223 532.799927,206.997696 
	C522.169983,206.997696 511.538544,207.083817 500.911804,206.898178 
	C499.439270,206.872452 497.990173,205.504089 495.516205,204.238586 
	C504.962952,201.363815 505.000244,201.311539 505.000397,192.577286 
	C505.000610,180.917450 505.061920,169.257034 504.955200,157.598175 
	C504.930176,154.862885 504.144928,152.139633 504.047424,149.398819 
	C503.878143,144.639252 500.491394,144.047012 497.050507,144.072235 
	C491.895142,144.110001 489.043396,146.668503 489.024750,150.968491 
	C488.961853,165.459732 489.011780,179.951416 488.986725,194.442886 
	C488.983673,196.202301 488.786743,197.961395 488.688477,199.576096 
	C490.630981,201.561325 492.644714,203.619370 494.658447,205.677414 
	C494.379425,206.028473 494.100372,206.379532 493.821350,206.730591 
	C472.094147,206.730591 450.366974,206.730591 427.219116,206.730591 
	C428.553345,204.816162 429.213379,202.900208 430.523895,202.197800 
	C432.975403,200.883820 433.313416,199.769226 433.252441,196.748459 
	C432.998993,184.188461 433.775879,171.611435 433.898438,159.037979 
	C433.939514,154.820007 433.808563,150.362335 432.426758,146.488434 
	C431.891815,144.988724 427.576630,143.951508 425.157959,144.228088 
	C421.948730,144.595108 418.083588,145.818695 418.048370,150.209702 
	C417.921478,166.032761 417.749359,181.865356 418.253204,197.673340 
	C418.332703,200.168869 421.813934,202.555969 423.753662,205.033188 
	C421.765594,207.272736 394.620178,208.223373 387.935394,205.820312 
	C388.883453,204.739075 389.516754,203.410721 390.537079,202.961761 
	C394.248505,201.328613 395.157532,198.678940 395.100586,194.740601 
	C394.869415,178.753296 394.848053,162.758194 395.111481,146.771942 
	C395.175140,142.907593 394.362579,140.208954 390.936981,138.352768 
	C390.023346,137.857697 389.358276,136.904007 388.579071,136.160873 
	C388.746826,135.704147 388.914551,135.247437 389.082275,134.790710 
	C396.246948,134.527557 403.410156,134.118500 410.576782,134.044998 
	C416.905945,133.980087 417.450409,134.761368 417.021973,141.155243 
	C416.983093,141.735626 417.216003,142.334229 417.501465,143.913086 
	C423.782013,136.285782 431.838959,136.066605 440.113525,135.927383 
	C451.437164,135.736832 457.311066,145.051178 457.103088,153.082123 
	C456.732300,167.397476 456.989563,181.729324 457.007507,196.054245 
	C457.010468,198.406631 456.236328,201.290405 459.715515,201.918701 
	C462.468109,202.415771 465.013672,201.999298 466.438293,198.294540 
	C468.335724,195.682495 469.277618,193.596512 466.166840,191.997620 
z"/>
<path fill="#FEFEFE" opacity="1.000000" stroke="none" 
	d="
M328.311218,140.756134 
	C329.564789,143.933914 329.035553,145.522766 325.587433,146.246582 
	C322.031036,146.993164 318.766083,149.093216 315.214569,149.906281 
	C310.176453,151.059647 304.992706,151.577057 299.952789,152.353668 
	C301.012756,144.863113 302.314148,137.848007 302.904816,130.773560 
	C303.344452,125.508141 298.867950,120.529251 293.441986,119.153572 
	C289.573547,118.172791 285.488281,120.881821 282.613129,125.803894 
	C277.993042,133.713074 277.420197,142.548279 275.790253,151.270172 
	C273.739380,162.244629 276.279053,172.786026 277.439545,183.386368 
	C278.016083,188.652740 281.458008,193.774521 284.269501,198.571457 
	C286.366150,202.148727 290.052917,203.877808 294.455566,202.830841 
	C299.481598,201.635605 301.974823,197.910248 302.919220,193.286224 
	C303.983582,188.074585 303.304321,182.918259 301.039978,177.984634 
	C299.905518,175.512817 299.169342,172.858170 297.732300,168.824600 
	C308.213867,171.634354 317.839844,174.156738 327.405151,176.891464 
	C328.153229,177.105331 328.976379,178.830002 328.922302,179.805771 
	C328.277039,191.441986 319.016357,201.861633 307.702301,205.005539 
	C296.190338,208.204391 284.850128,207.990463 273.977173,202.953568 
	C262.221802,197.507904 254.056992,188.702347 251.030411,175.777283 
	C249.930328,171.079300 248.901855,166.340439 248.289871,161.562683 
	C247.993134,159.245956 248.769775,156.800049 248.997299,154.406616 
	C250.844543,134.974503 267.225464,119.076599 285.046112,115.845795 
	C296.178314,113.827583 306.384796,115.482841 315.757782,121.112823 
	C322.777435,125.329216 327.779205,131.578506 328.311218,140.756134 
z"/>
<path fill="#FEFEFE" opacity="1.000000" stroke="none" 
	d="
M356.267761,205.999725 
	C340.647095,205.128967 331.130157,192.288696 331.125763,179.772995 
	C331.122864,171.489838 330.077393,163.216522 332.779358,154.857315 
	C336.027191,144.809204 346.543701,135.912308 357.343018,136.987534 
	C363.932068,137.643600 370.621155,135.781601 377.110809,139.370438 
	C383.993500,143.176636 388.291656,148.327911 390.478790,155.838898 
	C393.755402,167.091476 393.900818,178.182236 389.982269,189.229507 
	C386.452881,199.179626 377.680817,205.274597 367.711792,205.958115 
	C364.068756,206.207886 360.394257,205.999329 356.267761,205.999725 
M355.946991,192.530350 
	C356.833649,195.061966 357.480469,197.712845 358.665527,200.096085 
	C360.277374,203.337616 362.465240,203.018967 364.277344,200.204285 
	C365.380554,198.490707 366.750549,196.585541 366.899200,194.680496 
	C367.778259,183.415421 368.879608,172.120026 368.773071,160.845535 
	C368.718536,155.073761 366.449341,149.284271 364.839783,143.599411 
	C364.529327,142.502930 362.535645,141.066803 361.491364,141.195068 
	C360.098663,141.366135 358.076385,142.681183 357.717651,143.911179 
	C356.194153,149.134460 354.275146,154.491852 354.180878,159.829926 
	C353.992279,170.506470 354.906097,181.202484 355.946991,192.530350 
z"/>
<path fill="#FEFEFE" opacity="1.000000" stroke="none" 
	d="
M561.910278,186.989944 
	C573.558838,196.295959 582.086853,188.898621 590.965332,182.233566 
	C589.440796,191.500275 584.701660,198.190079 576.842102,203.064636 
	C560.541931,213.174240 541.455994,202.007385 534.961670,187.011871 
	C531.574219,179.190231 530.890808,170.720612 532.378784,163.008774 
	C534.936951,149.749710 541.792297,136.680817 561.589050,133.932709 
	C575.448730,132.008789 591.416504,140.846817 594.408020,153.847427 
	C595.109680,156.896606 594.753418,158.840591 591.303894,160.429718 
	C580.566406,165.376312 570.052368,170.815094 559.555664,176.263214 
	C558.764404,176.673874 558.250916,178.813995 558.549744,179.888367 
	C559.228333,182.328705 560.493652,184.605865 561.910278,186.989944 
M571.004822,155.493561 
	C573.206177,151.968689 575.725403,148.595367 577.502441,144.868195 
	C578.788452,142.170746 578.244568,139.710968 574.481079,138.735764 
	C570.216370,137.630692 565.960632,139.016846 563.088867,143.706238 
	C558.056152,151.924255 556.735413,161.042343 557.068481,171.721710 
	C561.979553,165.972076 566.232300,160.993134 571.004822,155.493561 
z"/>
<path fill="#FEFEFE" opacity="1.000000" stroke="none" 
	d="
M629.773621,134.001312 
	C642.282471,135.732056 653.018860,141.814621 655.750122,153.452820 
	C656.502014,156.657013 656.598389,159.349655 651.982117,160.144196 
	C645.847656,161.200073 639.858826,163.102036 632.750488,164.909180 
	C633.181396,162.447174 633.281494,161.099319 633.662659,159.836349 
	C635.046570,155.251373 637.114685,150.771744 637.724182,146.095901 
	C638.040649,143.667984 636.499268,139.773636 634.572876,138.660446 
	C632.998352,137.750626 628.650024,139.194809 627.195496,140.963654 
	C621.987976,147.296539 619.703430,154.962997 618.947876,163.156509 
	C618.352478,169.614075 618.673218,175.840652 620.980347,181.983643 
	C623.870056,189.677780 632.830933,193.630676 640.446655,190.074554 
	C643.337585,188.724640 645.886719,186.647156 648.607849,184.926910 
	C649.830933,184.153702 651.093689,183.443359 652.806580,182.426605 
	C651.801331,192.214462 642.081726,203.623047 633.035461,205.940521 
	C616.356689,210.213379 602.280090,200.553253 596.578491,186.553238 
	C593.178101,178.203506 593.268433,168.606567 595.189392,159.126419 
	C598.138733,144.570831 613.273926,132.332275 629.773621,134.001312 
z"/>
<path fill="#FEFEFE" opacity="1.000000" stroke="none" 
	d="
M685.832947,153.004150 
	C685.832947,168.471222 685.832947,183.938278 685.832947,199.736298 
	C689.943359,197.412094 693.759338,195.254395 697.916687,192.903671 
	C697.916687,194.378006 698.299072,195.971222 697.859314,196.245300 
	C691.313843,200.324677 686.486633,207.589233 677.416321,207.038834 
	C669.181152,206.539124 662.917236,201.085022 662.969543,192.322220 
	C663.076660,174.368088 663.001648,156.412872 663.001648,138.541931 
	C661.170837,137.958771 659.569153,137.448608 657.967529,136.938446 
	C657.892761,136.512115 657.818054,136.085800 657.743347,135.659485 
	C659.276917,134.955292 660.810547,134.251099 663.001770,133.244904 
	C663.001770,132.490112 662.794189,130.499146 663.045349,128.567856 
	C663.553162,124.663841 662.445984,121.979523 658.348572,120.942108 
	C657.806946,120.804970 657.079956,119.914993 657.111755,119.416580 
	C657.143311,118.920929 658.005127,118.096535 658.533997,118.071396 
	C666.743042,117.681183 674.962219,117.180527 683.163513,117.372269 
	C684.155396,117.395462 685.600708,121.222481 685.876953,123.407761 
	C686.330994,126.999290 686.000000,130.690048 686.000000,135.004074 
	C688.355896,135.004074 690.612488,134.898178 692.848938,135.064148 
	C693.586365,135.118866 694.271667,135.876068 694.980774,136.312073 
	C694.226562,136.873032 693.524475,137.808243 692.707886,137.922073 
	C690.584656,138.218048 688.411133,138.153305 685.712158,138.681702 
	C684.778625,142.756912 684.243347,146.377167 684.100647,150.012848 
	C684.062439,150.985779 685.222778,152.005768 685.832947,153.004150 
z"/>
<path fill="#FEFEFE" opacity="1.000000" stroke="none" 
	d="
M306.250122,50.258072 
	C302.664246,56.514797 299.343353,62.503857 295.743256,68.996460 
	C290.538239,68.996460 284.516388,69.424858 278.614288,68.771576 
	C276.454681,68.532547 273.926910,66.114594 272.685760,64.025917 
	C266.979645,54.423264 259.581543,46.767048 249.435791,41.902576 
	C247.346634,40.900909 245.296387,39.818104 243.169220,38.742889 
	C265.415924,34.178307 281.918091,42.076900 293.607758,61.155457 
	C294.148590,53.883770 289.634735,49.179249 285.836334,43.786129 
	C297.812653,34.321503 311.682465,39.352024 324.809998,38.393902 
	C317.944366,41.244755 311.015503,43.679367 306.250122,50.258072 
z"/>
<path fill="#F1F1F2" opacity="1.000000" stroke="none" 
	d="
M467.996124,143.007324 
	C467.996246,156.689499 467.996399,170.371689 467.688782,184.524902 
	C466.972321,184.999786 466.563599,185.003616 466.154877,185.007446 
	C466.100220,171.311234 466.045532,157.615036 466.378357,143.460297 
	C467.175934,143.003632 467.586029,143.005478 467.996124,143.007324 
z"/>
<path fill="#FAF9F9" opacity="1.000000" stroke="none" 
	d="
M685.910034,152.544754 
	C685.222778,152.005768 684.062439,150.985779 684.100647,150.012848 
	C684.243347,146.377167 684.778625,142.756912 685.500427,139.063431 
	C685.885193,143.359100 685.936218,147.722214 685.910034,152.544754 
z"/>
<path fill="#FBFBFC" opacity="1.000000" stroke="none" 
	d="
M466.088470,192.421204 
	C469.277618,193.596512 468.335724,195.682495 466.516296,197.916962 
	C466.113007,196.283081 466.061554,194.563934 466.088470,192.421204 
z"/>
<path fill="#FBFBFC" opacity="1.000000" stroke="none" 
	d="
M466.082214,185.378571 
	C466.563599,185.003616 466.972321,184.999786 467.687469,184.992920 
	C467.605347,185.951065 467.216766,186.912231 466.497437,187.937805 
	C466.114319,187.251389 466.061920,186.500549 466.082214,185.378571 
z"/>
<path fill="#FBFBFC" opacity="1.000000" stroke="none" 
	d="
M467.951233,142.677521 
	C467.586029,143.005478 467.175934,143.003632 466.458252,142.997223 
	C466.097229,142.559296 466.043762,142.125916 465.938080,141.367706 
	C466.559357,141.477844 467.232849,141.912766 467.951233,142.677521 
z"/>
<path fill="#000000" opacity="1.000000" stroke="none" 
	d="
M355.655823,192.210403 
	C354.906097,181.202484 353.992279,170.506470 354.180878,159.829926 
	C354.275146,154.491852 356.194153,149.134460 357.717651,143.911179 
	C358.076385,142.681183 360.098663,141.366135 361.491364,141.195068 
	C362.535645,141.066803 364.529327,142.502930 364.839783,143.599411 
	C366.449341,149.284271 368.718536,155.073761 368.773071,160.845535 
	C368.879608,172.120026 367.778259,183.415421 366.899200,194.680496 
	C366.750549,196.585541 365.380554,198.490707 364.277344,200.204285 
	C362.465240,203.018967 360.277374,203.337616 358.665527,200.096085 
	C357.480469,197.712845 356.833649,195.061966 355.655823,192.210403 
z"/>
<path fill="#000000" opacity="1.000000" stroke="none" 
	d="
M570.744934,155.753876 
	C566.232300,160.993134 561.979553,165.972076 557.068481,171.721710 
	C556.735413,161.042343 558.056152,151.924255 563.088867,143.706238 
	C565.960632,139.016846 570.216370,137.630692 574.481079,138.735764 
	C578.244568,139.710968 578.788452,142.170746 577.502441,144.868195 
	C575.725403,148.595367 573.206177,151.968689 570.744934,155.753876 
z"/>
</svg>