<svg version="1.1" id="Layer_1" xmlns="http://www.w3.org/2000/svg" xmlns:xlink="http://www.w3.org/1999/xlink" x="0px" y="0px"
	 width="100%" viewBox="0 0 500 500" enable-background="new 0 0 500 500" xml:space="preserve">
<path fill="#000000" opacity="1.000000" stroke="none" 
	d="
M347.000000,501.000000 
	C231.333359,501.000000 116.166725,501.000000 1.000062,501.000000 
	C1.000041,334.333405 1.000041,167.666794 1.000021,1.000151 
	C167.666550,1.000101 334.333099,1.000101 500.999756,1.000050 
	C500.999817,167.666519 500.999817,334.333038 500.999908,500.999786 
	C449.833344,501.000000 398.666656,501.000000 347.000000,501.000000 
M321.312073,360.955231 
	C320.346832,361.727661 319.381592,362.500061 317.775116,363.568604 
	C293.162415,376.577362 267.783691,376.977966 241.878723,368.095367 
	C231.005356,364.366974 223.792587,356.948120 220.976456,345.784912 
	C219.769363,340.999908 219.073700,335.951965 219.059204,331.020782 
	C218.915283,282.040955 219.070221,233.060165 218.872147,184.080719 
	C218.828522,173.293304 218.677353,162.350479 216.902649,151.759567 
	C213.599899,132.049683 196.660034,113.830482 171.840088,114.194588 
	C159.181549,114.380287 146.518616,114.268631 133.857666,114.289284 
	C130.973053,114.293983 128.088440,114.289978 125.203835,114.289978 
	C137.447525,122.135490 140.522278,133.358109 139.755966,146.596771 
	C139.304214,154.401245 139.663574,162.252914 139.665741,170.083359 
	C139.679550,219.897751 139.680237,269.712158 139.723877,319.526550 
	C139.732346,329.192841 141.753372,338.352509 147.119568,346.578583 
	C153.756699,356.752960 162.948242,364.138000 173.464325,369.800476 
	C206.319611,387.491730 241.358734,391.290527 277.571350,384.489380 
	C293.042847,381.583618 307.202667,374.838593 319.788208,364.037445 
	C320.644409,363.149811 321.500580,362.262177 322.779266,361.011383 
	C322.730103,360.748199 322.680969,360.485046 322.631805,360.221863 
	C322.399475,360.458801 322.167114,360.695770 321.312073,360.955231 
M344.644745,148.572769 
	C345.503387,146.780670 346.463409,145.029419 347.204437,143.189911 
	C352.515167,130.006226 360.467194,119.436661 374.759247,115.049484 
	C374.955994,114.989090 375.047272,114.585068 375.224670,114.277443 
	C361.595703,115.220016 347.114349,110.844933 334.997589,121.103989 
	C336.944489,124.060890 339.561523,126.703873 340.566223,129.860092 
	C342.256012,135.168411 342.921265,140.802872 343.547394,145.642685 
	C329.173676,121.282333 312.628723,110.717125 286.059296,114.940201 
	C289.132080,116.377739 292.176392,117.584885 295.011566,119.166809 
	C305.926910,125.257156 313.867126,134.257065 320.134399,144.938828 
	C321.096375,146.578339 323.001343,148.704422 324.554352,148.775879 
	C331.011932,149.072968 337.501740,148.669571 344.644745,148.572769 
z"/>
<path fill="#FEFEFE" opacity="1.000000" stroke="none" 
	d="
M319.187195,364.204987 
	C307.202667,374.838593 293.042847,381.583618 277.571350,384.489380 
	C241.358734,391.290527 206.319611,387.491730 173.464325,369.800476 
	C162.948242,364.138000 153.756699,356.752960 147.119568,346.578583 
	C141.753372,338.352509 139.732346,329.192841 139.723877,319.526550 
	C139.680237,269.712158 139.679550,219.897751 139.665741,170.083359 
	C139.663574,162.252914 139.304214,154.401245 139.755966,146.596771 
	C140.522278,133.358109 137.447525,122.135490 125.203835,114.289978 
	C128.088440,114.289978 130.973053,114.293983 133.857666,114.289284 
	C146.518616,114.268631 159.181549,114.380287 171.840088,114.194588 
	C196.660034,113.830482 213.599899,132.049683 216.902649,151.759567 
	C218.677353,162.350479 218.828522,173.293304 218.872147,184.080719 
	C219.070221,233.060165 218.915283,282.040955 219.059204,331.020782 
	C219.073700,335.951965 219.769363,340.999908 220.976456,345.784912 
	C223.792587,356.948120 231.005356,364.366974 241.878723,368.095367 
	C267.783691,376.977966 293.162415,376.577362 318.283203,363.657990 
	C318.923279,363.899933 319.055237,364.052460 319.187195,364.204987 
z"/>
<path fill="#F7F7F7" opacity="1.000000" stroke="none" 
	d="
M343.979706,148.523193 
	C337.501740,148.669571 331.011932,149.072968 324.554352,148.775879 
	C323.001343,148.704422 321.096375,146.578339 320.134399,144.938828 
	C313.867126,134.257065 305.926910,125.257156 295.011566,119.166809 
	C292.176392,117.584885 289.132080,116.377739 286.059296,114.940201 
	C312.628723,110.717125 329.173676,121.282333 343.757568,146.192535 
	C343.971710,147.335999 343.975708,147.929596 343.979706,148.523193 
z"/>
<path fill="#F0F0F0" opacity="1.000000" stroke="none" 
	d="
M344.312225,148.547974 
	C343.975708,147.929596 343.971710,147.335999 343.992615,146.521271 
	C342.921265,140.802872 342.256012,135.168411 340.566223,129.860092 
	C339.561523,126.703873 336.944489,124.060890 334.997589,121.103989 
	C347.114349,110.844933 361.595703,115.220016 375.224670,114.277443 
	C375.047272,114.585068 374.955994,114.989090 374.759247,115.049484 
	C360.467194,119.436661 352.515167,130.006226 347.204437,143.189911 
	C346.463409,145.029419 345.503387,146.780670 344.312225,148.547974 
z"/>
<path fill="#FEFEFE" opacity="1.000000" stroke="none" 
	d="
M322.356781,361.374542 
	C321.500580,362.262177 320.644409,363.149811 319.487701,364.121216 
	C319.055237,364.052460 318.923279,363.899933 318.603821,363.509949 
	C319.381592,362.500061 320.346832,361.727661 321.729248,361.054108 
	C322.146454,361.152985 322.356781,361.374542 322.356781,361.374542 
z"/>
<path fill="#FEFEFE" opacity="1.000000" stroke="none" 
	d="
M322.040619,361.042847 
	C322.167114,360.695770 322.399475,360.458801 322.631805,360.221863 
	C322.680969,360.485046 322.730103,360.748199 322.568024,361.192963 
	C322.356781,361.374542 322.146454,361.152985 322.040619,361.042847 
z"/>
</svg>